#define uparrow_width 12
#define uparrow_height 12
static char uparrow_bits[] = {
   0xff, 0x0f, 0x01, 0x08, 0x21, 0x08, 0x71, 0x08, 0xf9, 0x08, 0xfd, 0x09,
   0x71, 0x08, 0x71, 0x08, 0xf1, 0x00, 0xe1, 0x0f, 0x01, 0x00, 0xff, 0x0f};
