<?xml version="1.0" encoding="UTF-8" standalone="no"?>
<!-- Created with Inkscape (http://www.inkscape.org/) -->
<!DOCTYPE svg PUBLIC "-//W3C//DTD SVG 1.1//EN" "http://www.w3.org/Graphics/SVG/1.1/DTD/svg11.dtd">
<svg xmlns:svg="http://www.w3.org/2000/svg" xmlns="http://www.w3.org/2000/svg" version="1.1" width="549" height="173" id="svg4679">
  <defs id="defs4681"/>
  
  <g transform="translate(-85.499992,-391.57648)" id="layer3" style="display:inline">
    <g id="g5527">
      <g id="g5443">
        <path d="m 140.53571,451.11218 c -2.34717,-0.18439 -2.94806,2.69279 -4.88307,3.50139 -2.07864,1.2799 -3.99924,2.70528 -5.58068,4.55941 -1.09539,1.42055 -1.92937,3.46813 -3.33313,5.02331 -0.94309,1.46591 -2.70939,2.9409 -1.66812,4.48035 -1.40359,2.31478 -1.71715,5.08118 -2.04145,7.72101 0.22542,2.57685 1.4545,4.91703 2.64537,7.1649 1.28164,2.45138 2.40608,4.95489 3.69492,7.39454 1.11512,1.7909 2.19161,3.53618 3.70563,4.99993 1.32844,1.62916 3.31429,2.58319 5.13911,3.54802 1.68118,1.77529 4.29121,1.1665 6.46567,1.21613 2.12274,-0.41473 4.09952,-1.57787 5.89611,-2.73487 0.82943,-1.47515 1.77783,-1.88851 3.05392,-3.89127 0.54732,-1.82872 2.85664,-2.73428 2.81408,-4.4021 1.16086,-1.31965 2.22123,-3.2807 3.09998,-4.98014 1.83889,-2.46153 1.41116,-5.63352 1.71197,-8.52169 0.19439,-2.47411 -0.20664,-4.79744 -0.59847,-7.20374 -0.23274,-2.23658 -1.38494,-4.23996 -1.72898,-6.44661 -1.24262,-1.88715 -2.49801,-3.59083 -3.75424,-5.47566 -1.90725,-1.76438 -4.5279,-2.40937 -6.78147,-3.63148 -2.46796,-0.76573 -4.67317,-3.14813 -7.4324,-2.52178 l -0.42475,0.20035 z" id="path4753" style="fill:none;stroke:#000000;stroke-width:1px;stroke-linecap:butt;stroke-linejoin:miter;stroke-opacity:1"/>
        <path d="m 140.7352,454.11095 c -2.06031,-0.16199 -2.58776,2.36564 -4.28627,3.07601 -1.8246,1.1244 -3.51047,2.37662 -4.89863,4.00549 -0.96151,1.24797 -1.69356,3.04679 -2.92576,4.41303 -0.82783,1.28782 -2.37825,2.58361 -1.46425,3.93604 -1.23204,2.03355 -1.50728,4.46387 -1.79194,6.78298 0.19787,2.26379 1.27673,4.31967 2.32206,6.29445 1.125,2.15356 2.11201,4.35292 3.24333,6.49618 0.97883,1.57332 1.92376,3.10657 3.25274,4.39249 1.16608,1.43123 2.90922,2.26936 4.51102,3.11697 1.47571,1.55961 3.76675,1.02479 5.67545,1.06839 1.8633,-0.36435 3.59848,-1.38618 5.1755,-2.40262 0.72806,-1.29593 1.56055,-1.65907 2.68068,-3.41852 0.48042,-1.60655 2.5075,-2.40209 2.47015,-3.86729 1.01898,-1.15933 1.94975,-2.88213 2.7211,-4.37511 1.61415,-2.16248 1.23869,-4.9491 1.50274,-7.48639 0.17063,-2.17353 -0.18138,-4.2146 -0.52533,-6.32856 -0.20429,-1.96486 -1.21567,-3.72485 -1.51766,-5.66342 -1.09075,-1.65788 -2.19271,-3.15458 -3.29541,-4.81043 -1.67415,-1.55002 -3.97451,-2.11665 -5.95265,-3.19029 -2.16634,-0.6727 -4.10203,-2.76567 -6.52403,-2.21541 l -0.37284,0.17601 z" id="path4753-8" style="fill:none;stroke:#000000;stroke-width:1px;stroke-linecap:butt;stroke-linejoin:miter;stroke-opacity:1"/>
        <path d="m 144.10714,473.61218 c -0.0356,-1.80414 -0.77776,-3.62931 -1.1612,-5.41825 -0.32859,-1.1089 0.0872,-1.98903 -0.17109,-3.12834 -0.64555,-2.09736 -0.46117,-4.31627 -0.435,-6.47494 0.0792,-1.4003 0.39676,-2.84487 0.0137,-4.22368 -0.34885,-0.90295 -1.95974,-1.04413 -2.07119,0.0715 -0.19685,0.90204 0.006,1.84357 -0.2346,2.74037 -0.31365,3.05979 0.37535,6.09043 0.64403,9.12271 0.0131,1.52538 0.11925,3.04984 0.37125,4.55414 0.12599,1.23271 0.0543,2.61592 0.833,3.65512 0.55573,0.56534 1.75126,0.77681 2.18832,-0.0319 0.12916,-0.27179 0.10119,-0.58488 0.0228,-0.86671 z" id="path4775" style="fill:none;stroke:#000000;stroke-width:1px;stroke-linecap:butt;stroke-linejoin:miter;stroke-opacity:1"/>
        <path d="m 153.57143,460.57647 c -0.0497,0.15748 -0.40906,0.51921 -0.11868,0.14382 -1.42481,1.31396 -1.70643,2.7331 -3.72212,4.90491 -0.259,1.31454 -1.33282,1.87695 -2.42382,2.45726 -1.9719,1.0975 -1.149,1.55099 -1.85383,2.51795 -0.87481,1.00387 -1.66396,2.12623 -2.10131,3.39188 -0.2113,0.86697 0.75054,1.11893 1.3804,0.81674 1.14178,-0.41117 1.50503,-1.69631 2.14918,-2.6003 0.66834,-0.64057 0.71649,-1.64409 1.52407,-2.14108 1.77247,-0.92227 3.27057,-2.29348 4.59197,-3.77762 0.79329,-0.4486 0.98481,-1.45807 1.71122,-1.9781 0.3207,-0.8061 0.63639,-1.79597 0.15876,-2.60387 -0.39393,-0.41926 -0.87139,-0.74583 -1.29584,-1.13159 z" id="path4777" style="fill:none;stroke:#000000;stroke-width:1px;stroke-linecap:butt;stroke-linejoin:miter;stroke-opacity:1"/>
        <path d="m 143.03571,476.29075 c 1.11912,0.16919 1.84649,1.12971 2.6247,1.85338 1.08258,1.25011 2.22892,1.70619 3.17988,3.05559 0.6321,1.11805 2.12427,2.15754 3.11064,2.98815 1.14065,1.0126 1.51707,2.78348 2.88994,3.44989 0.80399,0.22944 1.42133,-0.6151 1.53425,-1.32342 0.23267,-0.84379 0.21149,-1.89785 -0.53264,-2.48927 -0.90251,-0.86365 -2.32285,-0.67401 -3.18405,-1.57814 -1.76842,-1.61453 -3.55701,-3.47234 -5.4645,-4.89168 -0.7867,-0.5442 -1.58329,-1.09846 -2.48631,-1.43364 -0.48029,-0.58409 -1.32199,-0.11071 -1.67191,0.36914 z" id="path4779" style="fill:none;stroke:#000000;stroke-width:1px;stroke-linecap:butt;stroke-linejoin:miter;stroke-opacity:1"/>
        <path d="m 141.60714,478.25504 c -0.4138,2.19062 -0.0294,4.42226 -0.18044,6.6295 0.29155,1.78882 0.15322,3.60122 0.16157,5.40202 0.0353,2.26093 0.66477,4.45696 1.40251,6.57601 0.26963,1.05291 2.02728,1.52091 2.53971,0.4256 0.4571,-1.03429 0.0148,-2.17338 0.1936,-3.25021 0.033,-2.77755 -0.34992,-5.53704 -0.49917,-8.30625 -0.20747,-1.67332 -0.44726,-3.34332 -0.5412,-5.02785 -0.15249,-1.16458 -0.40878,-2.31962 -0.471,-3.49231 -0.25655,-1.05254 -1.8806,-0.90858 -1.98295,0.15457 -0.12079,0.34328 -0.27914,0.71607 -0.62263,0.88892 z" id="path4781" style="fill:none;stroke:#000000;stroke-width:1px;stroke-linecap:butt;stroke-linejoin:miter;stroke-opacity:1"/>
        <path d="m 140.71429,476.46932 c -1.16615,0.36909 -1.86125,1.45448 -2.78804,2.17856 -1.3659,1.26815 -3.18717,2.06827 -4.18363,3.70749 -0.64018,0.98439 -1.31276,1.9474 -2.08776,2.83085 -0.56753,0.72981 -1.22562,1.45725 -1.49487,2.35405 -0.003,0.87151 1.17066,1.24417 1.82058,0.79934 1.21507,-0.60415 1.4615,-2.08391 2.33396,-3.0171 0.97376,-1.24642 2.52773,-1.77407 3.68948,-2.79823 1.18761,-0.94101 2.07035,-2.18247 3.1288,-3.25354 0.33921,-0.45768 0.95242,-0.88597 0.84115,-1.52189 -0.1657,-0.61871 -0.77749,-0.93256 -1.25967,-1.27953 z" id="path4783" style="fill:none;stroke:#000000;stroke-width:1px;stroke-linecap:butt;stroke-linejoin:miter;stroke-opacity:1"/>
        <path d="m 127.14286,465.75504 c 0.44575,-0.19502 0.23539,0.34761 0.7052,0.32202 1.39709,0.8174 1.76095,2.65126 3.19662,3.42911 1.11203,0.68682 2.34805,1.18998 3.31405,2.09467 0.79192,0.6761 1.61908,1.32217 2.56628,1.76723 1.47028,0.82279 2.88139,1.76833 4.40926,2.4783 1.09537,-0.0313 0.57377,-1.44985 0.19345,-2.01312 -0.58804,-1.20002 -1.30448,-2.38743 -2.33195,-3.25847 -0.86589,-0.39994 -1.94959,0.30599 -2.73648,-0.33248 -0.30622,-0.57171 -0.28945,-1.25462 -0.97367,-1.58392 -0.8678,-0.7343 -2.06796,-0.91261 -2.88178,-1.72296 -1.06101,-0.92581 -1.87391,-2.19104 -3.20366,-2.76814 -1.01665,-0.33936 -1.89745,0.56661 -2.18956,1.46169 l -0.0678,0.12607 0,0 z" id="path4785" style="fill:none;stroke:#000000;stroke-width:1px;stroke-linecap:butt;stroke-linejoin:miter;stroke-opacity:1"/>
      </g>
      <g id="g5453">
        <path d="m 219.64286,455.75504 c -10.29067,-1.03309 -20.64977,-0.6034 -30.96653,-0.36822 -2.35542,-0.0512 -4.99063,0.29969 -6.48023,2.35774 -0.94904,3.18496 -0.22749,6.92495 -0.42577,9.91193 0.6461,2.12885 0.51931,3.99127 1.9584,5.71377 2.25748,1.57396 5.11539,0.20062 7.65178,0.55297 2.39689,0.0163 4.79409,0.12668 7.19092,0.0461 2.06153,1.11636 1.21887,3.703 0.83812,5.51312 -0.2714,2.46708 0.29587,4.95747 0.14832,7.45211 0.0351,3.58555 -0.15517,6.12242 0.33458,9.66347 -0.0725,1.65717 5.33138,2.15962 4.85618,0.38223 -0.95347,-4.62074 -0.28305,-10.28846 -1.15525,-14.92362 0.42404,-2.545 -1.81547,-7.08346 1.53621,-7.95816 2.30341,-0.10919 4.54459,0.76307 6.8669,0.39124 2.93765,0.0757 5.88966,-0.17636 8.67468,-1.17236 2.53369,-0.30221 4.67622,-2.58725 3.93796,-5.19336 -0.34126,-3.39088 -1.85047,-6.71416 -1.07429,-10.15506 0.41304,-2.21577 -2.27182,-2.95634 -3.89198,-2.21385 z" id="path4851" style="fill:none;stroke:#000000;stroke-width:1px;stroke-linecap:butt;stroke-linejoin:miter;stroke-opacity:1"/>
        <path d="m 186.60714,459.1479 c 1.37654,1.28967 3.41697,0.55562 5.09562,0.89563 3.97794,0.10997 7.95467,-0.1237 11.90889,-0.53936 5.40603,-0.34402 10.82456,-0.0931 16.23602,-0.19509 1.66444,2.28935 1.40624,3.70301 0.80506,5.67541 -0.47233,1.5267 0.1419,3.02942 0.74345,4.49688 -0.13995,2.02975 -2.37314,1.48264 -3.75144,1.70955 -4.73773,0.34071 -9.47968,-0.17024 -14.21886,-0.22046 -4.84644,-0.11535 -9.69849,9e-4 -14.54302,-0.0242 -1.46663,0.22693 -4.84976,0.874 -4.03236,-1.67824 0.63022,-1.31654 0.60585,-2.73205 0.59697,-4.15299 0.0369,-1.54478 -0.2028,-3.10295 -0.0626,-4.63726 0.16597,-0.59764 0.59069,-1.18196 1.22225,-1.32985 z" id="path4860" style="fill:none;stroke:#000000;stroke-width:1px;stroke-linecap:butt;stroke-linejoin:miter;stroke-opacity:1"/>
      </g>
      <g id="g5489">
        <path d="m 398.84642,453.58811 c 1.2838,1.53412 0.87586,3.64568 1.14466,5.47821 0.35929,1.84582 1.66126,3.31117 2.21966,5.08765 0.51712,1.51697 0.87743,3.10213 1.71658,4.48871 0.90597,1.79596 1.76467,3.62052 2.67835,5.40925 0.51476,0.95779 2.44245,0.007 2.45472,-0.92832 0.24524,-1.13703 -0.57474,-1.93398 -0.51261,-3.08899 -0.006,-1.04163 -0.85691,-2.12228 -1.34503,-3.06161 -1.54673,-2.43459 -1.2843,-3.3162 -2.18254,-5.62271 -0.73522,-1.21784 -1.45141,-2.50123 -1.59072,-3.94415 -0.30023,-1.51631 -0.42697,-3.26569 -1.62793,-4.37946 -0.95668,-0.60727 -2.17584,-0.1025 -2.95514,0.56142 z" id="path4785-9" style="fill:none;stroke:#000000;stroke-width:1px;stroke-linecap:butt;stroke-linejoin:miter;stroke-opacity:1"/>
        <path d="m 410.80037,477.92518 c 1.2838,1.53412 1.75974,5.66599 2.02854,7.49852 0.35929,1.84582 1.66126,3.31117 2.21966,5.08765 0.51712,1.51697 0.87743,3.10213 1.71658,4.48871 0.90597,1.79596 2.90109,6.01963 3.81477,7.80836 0.51476,0.95779 2.44245,0.007 2.45472,-0.92832 0.24524,-1.13703 -0.57474,-1.93398 -0.51261,-3.08899 -0.006,-1.04163 -1.99333,-4.52139 -2.48145,-5.46072 -1.54673,-2.43459 -1.2843,-3.3162 -2.18254,-5.62271 -0.73522,-1.21784 -1.45141,-2.50123 -1.59072,-3.94415 -0.30023,-1.51631 -1.31085,-5.286 -2.51181,-6.39977 -0.95668,-0.60727 -2.17584,-0.1025 -2.95514,0.56142 z" id="path4785-9-2" style="fill:none;stroke:#000000;stroke-width:1px;stroke-linecap:butt;stroke-linejoin:miter;stroke-opacity:1"/>
        <path d="m 407.05145,477.26997 c -0.95843,1.84723 -3.7098,5.18663 -4.92465,6.58468 -1.16597,1.47536 -1.42904,3.41782 -2.41266,4.99902 -0.81367,1.38078 -1.78126,2.68705 -2.28618,4.22712 -0.7719,1.85753 -2.60645,7.23337 -3.36784,9.09204 -0.39106,1.0146 1.58631,1.85722 2.30376,1.25702 1.02228,-0.55492 0.82458,-1.51765 1.29474,-2.84819 0.77984,-2.17688 2.06154,-5.92563 2.45596,-6.90799 0.83877,-2.75973 2.03565,-3.04589 3.19985,-5.23025 0.44465,-1.35129 0.77286,-2.64156 1.77656,-3.68751 0.95451,-1.21583 3.11339,-3.97351 4.31202,-5.61025 -0.16279,-1.12139 -1.34013,-1.71722 -2.35156,-1.87569 z" id="path4785-9-4" style="fill:none;stroke:#000000;stroke-width:1px;stroke-linecap:butt;stroke-linejoin:miter;stroke-opacity:1"/>
        <path d="m 423.03606,452.75394 c -1.04441,1.69972 -2.29509,1.85596 -3.50732,3.0758 -1.17926,1.30307 -1.63573,3.1917 -2.67038,4.62443 -0.86448,1.25729 -1.85279,2.41982 -2.47007,3.87691 -0.88489,1.73529 -3.10167,6.81167 -3.97764,8.54951 -0.457,0.95199 1.14723,2.05571 1.83647,1.55867 0.94654,-0.41073 1.14201,-1.53188 2.01531,-2.10621 0.34869,-1.78177 2.43517,-5.23636 2.89125,-6.15595 1.04925,-2.62001 1.81726,-2.87776 3.07887,-4.88348 0.54301,-1.27826 1.1429,-2.57608 2.13153,-3.4758 0.96634,-1.07471 1.24996,-1.42728 2.47645,-2.88579 -0.008,-1.13311 -0.95166,-1.88353 -1.80447,-2.17809 z" id="path4785-9-4-0" style="fill:none;stroke:#000000;stroke-width:1px;stroke-linecap:butt;stroke-linejoin:miter;stroke-opacity:1"/>
      </g>
      <g id="g5495">
        <path d="m 438.28199,454.75564 c -0.01,3.09212 -1.05942,9.56058 -1.50215,12.23278 -0.36394,2.74127 0.28868,5.48765 0.1353,8.24515 -0.0937,2.37729 -0.35827,4.76046 -0.10451,7.13892 0.16114,2.9792 -0.0273,11.1428 0.14367,14.11639 0.1152,1.60655 2.25918,1.37935 2.62354,0.0993 0.65625,-1.42698 0.1977,-2.98336 0.69116,-4.53778 -0.69291,-2.51073 0.30248,-8.57222 0.20499,-10.13843 -0.51347,-4.2173 0.0623,-5.28318 0.10101,-8.96055 -0.22121,-2.088 -0.40005,-4.25551 0.0155,-6.31903 0.29427,-2.25474 0.32061,-8.01521 0.63994,-10.99198 -0.65673,-1.37207 -1.97623,-1.36122 -2.94847,-0.88472 z" id="path4785-9-4-4" style="fill:none;stroke:#000000;stroke-width:1px;stroke-linecap:butt;stroke-linejoin:miter;stroke-opacity:1"/>
      </g>
      <g id="g5498">
        <path d="m 474.33416,499.53095 c 2.54564,0.35348 3.40045,-2.65139 5.5658,-3.37675 2.35464,-1.21453 4.54713,-2.59371 6.39969,-4.44959 1.29267,-1.42973 2.34394,-3.54076 3.98207,-5.09219 1.12979,-1.48802 3.15753,-2.9301 2.12944,-4.62979 1.69072,-2.35544 2.22464,-5.26243 2.76148,-8.03473 -0.0667,-2.74271 -1.24391,-5.3026 -2.38585,-7.76221 -1.22673,-2.68113 -2.27852,-5.40685 -3.51393,-8.07606 -1.0911,-1.97081 -2.14328,-3.89073 -3.69191,-5.54217 -1.33487,-1.814 -3.43321,-2.95775 -5.35528,-4.10206 -1.70921,-1.99247 -4.59646,-1.52412 -6.9632,-1.72331 -2.34262,0.29581 -4.57813,1.39363 -6.6168,2.49711 -1.00655,1.50544 -2.06902,1.879 -3.59908,3.91279 -0.7236,1.89873 -3.30369,2.70147 -3.37313,4.46968 -1.35702,1.3185 -2.64904,3.32269 -3.72492,5.06222 -2.17539,2.48142 -1.92947,5.8677 -2.45795,8.90444 -0.38374,2.60566 -0.10791,5.09186 0.15201,7.66527 0.0983,2.38304 1.2151,4.58126 1.43685,6.94012 1.2234,2.08128 2.47346,3.96924 3.71185,6.04899 1.9564,1.99616 4.76815,2.85562 7.13969,4.30117 2.63692,0.97695 4.87517,3.64737 7.92627,3.1705 l 0.4769,-0.18343 z" id="path4753-5" style="fill:none;stroke:#000000;stroke-width:1px;stroke-linecap:butt;stroke-linejoin:miter;stroke-opacity:1"/>
        <path d="m 474.32499,496.34341 c 2.23452,0.31042 2.985,-2.32941 4.88575,-2.96676 2.06692,-1.06708 3.99152,-2.27881 5.61777,-3.90928 1.13474,-1.25608 2.05762,-3.1107 3.49563,-4.47371 0.99179,-1.30728 2.77177,-2.57426 1.86943,-4.06741 1.48418,-2.06934 1.95299,-4.62317 2.42436,-7.05868 -0.0585,-2.40949 -1.09164,-4.65832 -2.09391,-6.81906 -1.07668,-2.35534 -1.99978,-4.74985 -3.08408,-7.09472 -0.95766,-1.73133 -1.88115,-3.41794 -3.24045,-4.86867 -1.17163,-1.59357 -3.01346,-2.59826 -4.70058,-3.60346 -1.50022,-1.75032 -4.03463,-1.33875 -6.11212,-1.51363 -2.05632,0.25998 -4.01867,1.22452 -5.80825,2.19402 -0.8836,1.3226 -1.81625,1.65082 -3.15941,3.4376 -0.63524,1.66806 -2.90005,2.3734 -2.9611,3.92678 -1.19122,1.15839 -2.32543,2.91913 -3.26992,4.44738 -1.90962,2.18004 -1.69393,5.15489 -2.15797,7.82273 -0.33695,2.2891 -0.0951,4.47323 0.13307,6.73397 0.0862,2.09352 1.06638,4.02463 1.26092,6.0969 1.07379,1.82838 2.17098,3.4869 3.25793,5.31392 1.7172,1.75357 4.18526,2.50846 6.26689,3.77829 2.31462,0.85813 4.27918,3.20402 6.95742,2.78494 l 0.41862,-0.16115 z" id="path4753-8-5" style="fill:none;stroke:#000000;stroke-width:1px;stroke-linecap:butt;stroke-linejoin:miter;stroke-opacity:1"/>
        <path d="m 472.00399,475.47463 c -0.0865,1.91202 0.59569,3.89395 0.88939,5.81334 0.28116,1.1959 -0.23318,2.09944 -0.0308,3.32277 0.55799,2.26353 0.2029,4.59973 0.0244,6.88284 -0.1836,1.47683 -0.63006,2.98444 -0.3083,4.46969 0.31755,0.97927 2.06363,1.23736 2.2626,0.064 0.27722,-0.9415 0.12151,-1.95177 0.44605,-2.88476 0.5544,-3.21753 0.0139,-6.47183 -0.0684,-9.6995 0.0917,-1.61546 0.0818,-3.2362 -0.0884,-4.84544 -0.0517,-1.31328 0.12249,-2.77253 -0.65412,-3.925 -0.56648,-0.63587 -1.85494,-0.94034 -2.38752,-0.11383 -0.15966,0.27897 -0.15091,0.61226 -0.0851,0.91585 z" id="path4775-6" style="fill:none;stroke:#000000;stroke-width:1px;stroke-linecap:butt;stroke-linejoin:miter;stroke-opacity:1"/>
        <path d="m 460.78238,488.63416 c 0.0651,-0.16334 0.48194,-0.52199 0.13936,-0.14423 1.64432,-1.29469 2.04986,-2.7778 4.39783,-4.94063 0.37362,-1.37393 1.58315,-1.89681 2.81266,-2.43746 2.22563,-1.02866 1.36015,-1.56417 2.19559,-2.54014 1.02328,-1.00355 1.96142,-2.1383 2.52605,-3.44845 0.29053,-0.90341 -0.74039,-1.23496 -1.44794,-0.9576 -1.27311,0.35822 -1.75832,1.69399 -2.52324,2.60738 -0.77299,0.63295 -0.89517,1.69188 -1.80997,2.16346 -1.99607,0.85665 -3.72426,2.20699 -5.26768,3.68878 -0.89585,0.42133 -1.17473,1.4769 -2.00264,1.97833 -0.40556,0.83161 -0.81842,1.85806 -0.35391,2.7454 0.40026,0.47034 0.89802,0.84821 1.33389,1.28516 z" id="path4777-1" style="fill:none;stroke:#000000;stroke-width:1px;stroke-linecap:butt;stroke-linejoin:miter;stroke-opacity:1"/>
        <path d="m 472.48023,471.85945 c -1.20811,-0.25456 -1.83673,-1.69909 -2.63472,-2.51755 -2.29369,-1.78748 -3.21846,-3.34238 -5.65683,-5.59029 -1.17299,-1.14872 -1.4603,-3.04852 -2.91046,-3.8465 -0.86043,-0.29708 -1.592,0.55521 -1.76427,1.29732 -0.31223,0.87743 -0.36235,1.99454 0.40769,2.67072 0.92376,0.97503 2.48513,0.87009 3.36105,1.88517 1.81547,1.82818 3.63602,3.91525 5.61663,5.54622 0.81972,0.62907 1.35696,1.83765 2.31798,2.25332 0.48295,0.65063 0.84817,-1.21411 1.26293,-1.69841 z" id="path4779-5" style="fill:none;stroke:#000000;stroke-width:1px;stroke-linecap:butt;stroke-linejoin:miter;stroke-opacity:1"/>
        <path d="m 475.0515,470.72894 c 0.60319,-2.29079 0.33919,-4.67883 0.65713,-7.00492 -0.19355,-1.91306 0.0831,-3.8221 0.19909,-5.72874 0.11855,-2.3955 -0.41504,-4.76238 -1.07202,-7.05507 -0.22077,-1.13266 -2.10413,-1.74656 -2.73877,-0.62177 -0.57007,1.06393 -0.16708,2.29945 -0.43677,3.42717 -0.22888,2.93771 -0.003,5.88436 -0.0328,8.82554 0.10994,1.78515 0.25532,3.56895 0.24071,5.3583 0.0853,1.24295 0.28447,2.48281 0.27084,3.72825 0.20654,1.13138 1.98678,1.08854 2.17218,-0.0299 0.1555,-0.3552 0.35401,-0.73911 0.74042,-0.89889 z" id="path4781-5" style="fill:none;stroke:#000000;stroke-width:1px;stroke-linecap:butt;stroke-linejoin:miter;stroke-opacity:1"/>
        <path d="m 475.92549,473.36619 c 1.32723,-0.14807 2.29886,-1.13729 3.44352,-1.70342 1.72892,-1.04363 3.84843,-1.50775 5.25864,-3.01253 0.89167,-0.89518 1.81361,-1.76154 2.82877,-2.52434 0.76069,-0.64486 1.61796,-1.2689 2.09366,-2.14802 0.18498,-0.90672 -0.99559,-1.5324 -1.78516,-1.20092 -1.42871,0.38288 -2.00156,1.87355 -3.13158,2.66838 -1.30396,1.10043 -3.08006,1.33504 -4.5392,2.16599 -1.46954,0.73914 -2.67489,1.85285 -4.03305,2.75355 -0.45914,0.4078 -1.20592,0.7295 -1.21925,1.41407 0.0486,0.67771 0.63906,1.12837 1.08365,1.58724 z" id="path4783-0" style="fill:none;stroke:#000000;stroke-width:1px;stroke-linecap:butt;stroke-linejoin:miter;stroke-opacity:1"/>
        <path d="m 489.94958,484.93529 c -0.49942,0.17636 -0.23244,-0.38381 -0.74631,-0.38842 -1.46609,-0.9594 -1.73533,-2.92503 -3.2462,-3.84518 -1.16442,-0.80197 -2.47675,-1.41792 -3.46688,-2.44064 -0.81624,-0.76904 -1.67298,-1.50868 -2.67454,-2.04364 -1.54548,-0.97006 -3.01792,-2.06605 -4.63401,-2.92058 -1.19616,-0.0408 -0.72612,1.49592 -0.35069,2.11778 0.55763,1.30983 1.25608,2.61499 2.31554,3.60625 0.91605,0.48172 2.14633,-0.19239 2.9597,0.53647 0.29409,0.62579 0.22838,1.3475 0.95131,1.7422 0.89492,0.83576 2.19072,1.10544 3.02151,2.01805 1.09221,1.05151 1.89041,2.44553 3.29978,3.14605 1.08458,0.42777 2.10759,-0.47176 2.48817,-1.39947 l 0.0827,-0.12887 0,0 z" id="path4785-1" style="fill:none;stroke:#000000;stroke-width:1px;stroke-linecap:butt;stroke-linejoin:miter;stroke-opacity:1"/>
      </g>
      <g id="g5508">
        <path d="m 525.66461,447.83671 c -2.30706,-0.46975 -3.25494,2.31247 -5.27424,2.87862 -2.21943,1.01638 -4.29978,2.19645 -6.09588,3.8435 -1.26073,1.27609 -2.33861,3.20645 -3.92184,4.57849 -1.11511,1.33971 -3.04837,2.58788 -2.20297,4.243 -1.67586,2.12597 -2.32503,4.83335 -2.9694,7.41379 -0.0911,2.58508 0.84291,5.05789 1.75025,7.4344 0.97257,2.58959 1.78275,5.21172 2.76389,7.79055 0.88798,1.91371 1.7432,3.77743 3.06706,5.41517 1.11946,1.77925 2.97389,2.96874 4.66717,4.14927 1.45171,1.96737 4.11656,1.682 6.26867,1.9969 2.15751,-0.1523 4.26157,-1.06523 6.18605,-1.99408 1.00343,-1.36278 1.99523,-1.65718 3.50643,-3.48904 0.76662,-1.74816 3.16927,-2.36482 3.33078,-4.02535 1.31338,-1.16795 2.60538,-2.98477 3.68516,-4.56413 2.12583,-2.21844 2.08881,-5.41892 2.74021,-8.24871 0.49518,-2.43183 0.38098,-4.78675 0.28606,-7.2229 0.0422,-2.24826 -0.85659,-4.37739 -0.92848,-6.60954 -1.00277,-2.02482 -2.04063,-3.86911 -3.05719,-5.89329 -1.67741,-1.98416 -4.19964,-2.94447 -6.28703,-4.43274 -2.35593,-1.06149 -4.25357,-3.69544 -7.06866,-3.41087 l -0.44604,0.14696 z" id="path4753-57" style="fill:none;stroke:#000000;stroke-width:1px;stroke-linecap:butt;stroke-linejoin:miter;stroke-opacity:1"/>
        <path d="m 525.49626,450.83739 c -2.02509,-0.41247 -2.85738,2.03179 -4.62995,2.52934 -1.94829,0.89307 -3.77451,1.92996 -5.35127,3.37704 -1.10676,1.12116 -2.05308,2.81708 -3.44296,4.02255 -0.97896,1.17704 -2.67607,2.27372 -1.93413,3.72768 -1.47124,1.8678 -2.04132,4.2463 -2.60716,6.51326 -0.0802,2.27101 0.73945,4.44329 1.5357,6.53098 0.85348,2.27486 1.56441,4.57833 2.42543,6.84374 0.77929,1.68112 1.52983,3.31832 2.69176,4.75696 0.9825,1.56297 2.6102,2.60777 4.09645,3.64472 1.27413,1.72821 3.61334,1.47728 5.50242,1.75373 1.89385,-0.13399 3.74087,-0.93619 5.43025,-1.75236 0.88092,-1.19728 1.75154,-1.456 3.07823,-3.06543 0.67308,-1.53582 2.78217,-2.07777 2.92409,-3.53655 1.15298,-1.02617 2.28725,-2.62235 3.23521,-4.00992 1.86624,-1.94909 1.83402,-4.7607 2.40606,-7.24673 0.43488,-2.13641 0.33486,-4.20519 0.25173,-6.34534 0.0373,-1.9751 -0.75151,-3.84546 -0.81441,-5.8064 -0.88005,-1.77872 -1.79091,-3.39883 -2.68306,-5.17699 -1.47225,-1.74293 -3.68616,-2.58634 -5.51832,-3.8936 -2.06794,-0.93231 -3.73344,-3.24608 -6.20452,-2.99582 l -0.39155,0.12914 z" id="path4753-8-1" style="fill:none;stroke:#000000;stroke-width:1px;stroke-linecap:butt;stroke-linejoin:miter;stroke-opacity:1"/>
        <path d="m 526.46057,470.60449 c 0.18507,-1.79498 -0.32856,-3.69715 -0.49058,-5.51953 -0.19066,-1.14074 0.32954,-1.96348 0.21237,-3.12581 -0.38449,-2.16051 0.0696,-4.34028 0.35927,-6.47958 0.24967,-1.38014 0.74133,-2.77509 0.52958,-4.19037 -0.23593,-0.93881 -1.8175,-1.27572 -2.06441,-0.18206 -0.30557,0.87123 -0.21926,1.83049 -0.56762,2.69118 -0.6851,2.99855 -0.3715,6.09067 -0.47527,9.13306 -0.17335,1.51555 -0.25423,3.04156 -0.18789,4.56538 -0.0256,1.23887 -0.26568,2.60296 0.38023,3.72951 0.4825,0.62899 1.64324,0.98493 2.17583,0.23567 0.16139,-0.25397 0.17188,-0.56814 0.12851,-0.85743 z" id="path4775-3" style="fill:none;stroke:#000000;stroke-width:1px;stroke-linecap:butt;stroke-linejoin:miter;stroke-opacity:1"/>
        <path d="m 537.44648,458.82262 c -0.0686,0.15023 -0.46942,0.46535 -0.13536,0.12825 -1.57466,1.13005 -2.02754,2.50416 -4.29345,4.41346 -0.41765,1.27305 -1.55214,1.70006 -2.70586,2.14274 -2.0912,0.84839 -1.32987,1.39901 -2.14755,2.27262 -0.99089,0.88948 -1.91125,1.90703 -2.49994,3.10977 -0.31563,0.83466 0.60823,1.20224 1.27028,0.97926 1.18346,-0.26861 1.70099,-1.49975 2.45075,-2.31827 0.74159,-0.55413 0.91198,-1.54425 1.77422,-1.93886 1.87187,-0.69882 3.52626,-1.87675 5.01907,-3.18834 0.84215,-0.34833 1.15556,-1.32684 1.94006,-1.75423 0.41678,-0.76089 0.85103,-1.70478 0.47567,-2.56497 -0.33976,-0.46425 -0.77374,-0.8467 -1.14789,-1.28143 z" id="path4777-7" style="fill:none;stroke:#000000;stroke-width:1px;stroke-linecap:butt;stroke-linejoin:miter;stroke-opacity:1"/>
        <path d="m 525.06994,473.1321 c 1.09006,0.30464 1.69464,1.34683 2.37862,2.16015 0.92175,1.373 2.00379,1.9657 2.78277,3.42117 0.49078,1.1869 1.84478,2.40089 2.72229,3.34578 1.00841,1.14436 1.16567,2.94796 2.44684,3.7771 0.76994,0.32594 1.48583,-0.43686 1.68444,-1.12607 0.334,-0.80905 0.44175,-1.8578 -0.22455,-2.5357 -0.79024,-0.96744 -2.22311,-0.95273 -2.96741,-1.9553 -1.55793,-1.81848 -3.10617,-3.88087 -4.82597,-5.52261 -0.71433,-0.63623 -1.43724,-1.28366 -2.29255,-1.72664 -0.40534,-0.63839 -1.29856,-0.27139 -1.70448,0.16212 z" id="path4779-54" style="fill:none;stroke:#000000;stroke-width:1px;stroke-linecap:butt;stroke-linejoin:miter;stroke-opacity:1"/>
        <path d="m 523.4121,474.90716 c -0.67832,2.12366 -0.56943,4.38554 -0.98899,6.5578 0.0708,1.81103 -0.28787,3.59296 -0.49957,5.38129 -0.24118,2.24831 0.1153,4.50479 0.58864,6.69809 0.13898,1.07797 1.82629,1.75719 2.46869,0.73268 0.58003,-0.9707 0.2802,-2.15529 0.58922,-3.20221 0.37207,-2.75272 0.32913,-5.53832 0.5193,-8.30502 -10e-4,-1.68613 -0.0355,-3.37292 0.0771,-5.0563 -0.009,-1.17449 -0.12234,-2.35219 -0.0408,-3.5237 -0.12604,-1.07599 -1.75552,-1.13151 -1.98698,-0.0888 -0.16182,0.32595 -0.36453,0.6766 -0.72656,0.8062 z" id="path4781-52" style="fill:none;stroke:#000000;stroke-width:1px;stroke-linecap:butt;stroke-linejoin:miter;stroke-opacity:1"/>
        <path d="m 522.74409,473.02574 c -1.20251,0.22386 -2.025,1.2162 -3.0333,1.82164 -1.5106,1.09178 -3.41597,1.66341 -4.60522,3.16862 -0.75565,0.89881 -1.54083,1.77244 -2.41796,2.5546 -0.65243,0.65501 -1.39446,1.2966 -1.77125,2.15379 -0.10945,0.86462 1.00989,1.37787 1.70929,1.01577 1.27977,-0.45119 1.70513,-1.88976 2.68506,-2.70937 1.11874,-1.11813 2.72553,-1.45199 4.00369,-2.32655 1.29368,-0.78888 2.32147,-1.9132 3.50284,-2.84694 0.39258,-0.41281 1.05352,-0.76298 1.02077,-1.40773 -0.0889,-0.63432 -0.65774,-1.02056 -1.09392,-1.42383 z" id="path4783-9" style="fill:none;stroke:#000000;stroke-width:1px;stroke-linecap:butt;stroke-linejoin:miter;stroke-opacity:1"/>
        <path d="m 510.58323,460.73375 c 0.46623,-0.1391 0.19116,0.37376 0.66057,0.40576 1.28677,0.98195 1.42387,2.84653 2.75376,3.79394 1.0198,0.81753 2.18509,1.46792 3.03333,2.48384 0.7034,0.76778 1.44543,1.51007 2.33117,2.06751 1.35875,0.99624 2.64378,2.10709 4.07347,2.99839 1.09099,0.10275 0.74659,-1.36889 0.43793,-1.97441 -0.43703,-1.26287 -1.00305,-2.52891 -1.91641,-3.51894 -0.81054,-0.50273 -1.97237,0.0655 -2.67536,-0.6643 -0.23409,-0.60483 -0.13401,-1.28058 -0.77288,-1.691 -0.77159,-0.83481 -1.94098,-1.15841 -2.64971,-2.06211 -0.93996,-1.04849 -1.5922,-2.40355 -2.84149,-3.13878 -0.96758,-0.46102 -1.95246,0.33056 -2.35173,1.18325 l -0.0827,0.11685 0,0 z" id="path4785-92" style="fill:none;stroke:#000000;stroke-width:1px;stroke-linecap:butt;stroke-linejoin:miter;stroke-opacity:1"/>
      </g>
      <g id="g5473">
        <path d="m 313.74968,501.08192 c 2.54564,0.35348 3.93616,-1.57996 6.10151,-2.30532 2.35464,-1.21453 3.50634,-1.89737 5.3589,-3.75325 1.29267,-1.42973 2.34394,-3.54076 3.98207,-5.09219 1.12979,-1.48802 3.15753,-2.9301 2.12944,-4.62979 1.69072,-2.35544 2.22464,-5.26243 2.76148,-8.03473 -0.0667,-2.74271 0.39759,-7.07037 -0.74435,-9.52998 -1.22673,-2.68113 -2.27852,-5.40685 -3.51393,-8.07606 -1.0911,-1.97081 -2.14328,-3.89073 -3.69191,-5.54217 -1.33487,-1.814 -5.07471,-1.18998 -6.99678,-2.33429 -1.70921,-1.99247 -4.59646,-1.52412 -6.9632,-1.72331 -2.34262,0.29581 -3.32813,2.73292 -5.3668,3.8364 -1.00655,1.50544 -2.96188,1.70042 -4.49194,3.73421 -0.7236,1.89873 -3.2144,1.63005 -3.73027,3.30897 -1.35702,1.3185 -1.13118,3.14412 -1.76063,5.15151 -2.17539,2.48142 -2.19733,4.6177 -2.72581,7.65444 -0.38374,2.60566 -0.10791,5.09186 0.15201,7.66527 0.0983,2.38304 0.16533,2.07754 0.38708,4.4364 1.2234,2.08128 2.47346,3.96924 3.71185,6.04899 1.9564,1.99616 3.67506,4.37719 6.0466,5.82274 2.63692,0.97695 3.95168,3.57603 7.00278,3.09916 z" id="path4753-5-1" style="fill:none;stroke:#000000;stroke-width:1px;stroke-linecap:butt;stroke-linejoin:miter;stroke-opacity:1"/>
        <path d="m 313.74051,497.89438 c 2.23452,0.31042 3.25285,-1.52584 5.1536,-2.16319 2.06692,-1.06708 3.21859,-1.31461 4.84484,-2.94508 1.13474,-1.25608 2.05762,-3.1107 3.49563,-4.47371 0.99179,-1.30728 2.77177,-2.57426 1.86943,-4.06741 1.48418,-2.06934 1.95299,-4.62317 2.42436,-7.05868 -0.0585,-2.40949 0.54986,-6.42609 -0.45241,-8.58683 -1.07668,-2.35534 -1.99978,-4.74985 -3.08408,-7.09472 -0.95766,-1.73133 -1.88115,-3.41794 -3.24045,-4.86867 -1.17163,-1.59357 -4.65496,-0.83049 -6.34208,-1.83569 -1.50022,-1.75032 -4.03463,-1.33875 -6.11212,-1.51363 -2.05632,0.25998 -4.10796,2.11738 -5.89754,3.08688 -0.8836,1.3226 -0.92339,1.47225 -2.26655,3.25903 -1.98732,1.66806 -3.70362,1.65911 -3.76467,3.21249 -1.19122,1.15839 -0.89686,3.27627 -1.84135,4.80452 -1.90962,2.18004 -1.42607,3.63704 -1.89011,6.30488 -0.33695,2.2891 -0.0951,4.47323 0.13307,6.73397 0.0862,2.09352 0.0166,1.52091 0.21115,3.59318 1.07379,1.82838 2.17098,3.4869 3.25793,5.31392 1.7172,1.75357 4.04368,4.40512 6.12531,5.67495 2.31462,0.85813 4.27918,3.20402 6.95742,2.78494 z" id="path4753-8-5-6" style="fill:none;stroke:#000000;stroke-width:1px;stroke-linecap:butt;stroke-linejoin:miter;stroke-opacity:1"/>
        <path d="m 310.91443,478.79337 c -0.0865,1.91202 0.59569,3.89395 0.88939,5.81334 0.28116,1.1959 -0.35945,2.35198 -0.15707,3.57531 0.55799,2.26353 -0.42844,2.95823 -0.60694,5.24134 -0.1836,1.47683 -0.12499,2.35309 0.19677,3.83834 0.31755,0.97927 2.82125,1.4899 3.02022,0.31654 0.27722,-0.9415 -1.26745,-1.95177 -0.94291,-2.88476 0.5544,-3.21753 0.89778,-4.70406 0.81548,-7.93173 0.0917,-1.61546 0.0818,-3.2362 -0.0884,-4.84544 -0.0517,-1.31328 0.12249,-2.77253 -0.65412,-3.925 -0.56648,-0.63587 -1.85494,-0.94034 -2.38752,-0.11383 -0.15966,0.27897 -0.15091,0.61226 -0.0851,0.91585 z" id="path4775-6-0" style="fill:none;stroke:#000000;stroke-width:1px;stroke-linecap:butt;stroke-linejoin:miter;stroke-opacity:1"/>
        <path d="m 299.61344,487.81496 c 2.36842,-1.47085 1.43752,-1.51571 2.73785,-2.59105 0.37362,-1.37393 1.44156,-1.01029 2.67107,-1.55094 2.22563,-1.02866 2.24404,-1.81671 3.07948,-2.79268 1.02328,-1.00355 3.09784,-1.12815 3.66247,-2.4383 0.29053,-0.90341 -0.74039,-1.23496 -1.44794,-0.9576 -1.27311,0.35822 -2.6422,0.30503 -3.40712,1.21842 -0.77299,0.63295 -1.02144,1.43934 -1.93624,1.91092 -1.99607,0.85665 -2.06745,0.18406 -3.61087,1.66585 -0.89585,0.42133 -1.17473,1.4769 -2.00264,1.97833 -0.40556,0.83161 -1.44976,0.59537 -0.98525,1.48271 0.40026,0.47034 0.80332,1.63739 1.23919,2.07434 z" id="path4777-1-3" style="fill:none;stroke:#000000;stroke-width:1px;stroke-linecap:butt;stroke-linejoin:miter;stroke-opacity:1"/>
        <path d="m 311.97552,474.89937 c -1.13078,0.0165 -1.48027,-1.95096 -2.3591,-2.48138 -2.41147,-1.05428 -3.67923,-1.9212 -6.31333,-3.33138 -1.28081,-0.26609 -2.30166,-0.77629 -3.75891,-2.02023 -0.82885,-0.0846 -1.30943,0.7631 -1.31275,1.4134 -0.10091,0.78938 0.081,1.72872 0.90596,2.14599 1.02295,0.63697 2.39635,0.25446 3.3847,0.93381 1.99255,1.17856 4.04215,2.57165 6.1422,3.55483 0.85983,0.36867 1.5849,1.27311 2.52767,1.43744 0.56338,0.45027 0.51133,-1.17095 0.78356,-1.65248 z" id="path4779-5-2" style="fill:none;stroke:#000000;stroke-width:1px;stroke-linecap:butt;stroke-linejoin:miter;stroke-opacity:1"/>
        <path d="m 313.96194,474.04768 c -0.53323,-2.29079 -1.17604,-4.17375 -0.8581,-6.49984 -0.19355,-1.91306 -0.0432,-5.08479 0.0728,-6.99143 0.11855,-2.3955 1.22646,-4.00477 0.56948,-6.29746 -0.22077,-1.13266 -2.10413,-1.74656 -2.73877,-0.62177 -0.57007,1.06393 -0.16708,2.29945 -0.43677,3.42717 -0.22888,2.93771 -0.003,5.88436 -0.0328,8.82554 0.10994,1.78515 0.25532,3.56895 0.24071,5.3583 0.0853,1.24295 0.28447,2.48281 0.27084,3.72825 0.20654,1.13138 1.98678,1.08854 2.17218,-0.0299 0.1555,-0.3552 0.35401,-0.73911 0.74042,-0.89889 z" id="path4781-5-6" style="fill:none;stroke:#000000;stroke-width:1px;stroke-linecap:butt;stroke-linejoin:miter;stroke-opacity:1"/>
        <path d="m 314.33085,475.04343 c 1.32723,-0.14807 2.29886,-1.13729 3.44352,-1.70342 1.72892,-1.04363 5.48993,-3.27551 6.90014,-4.78029 0.89167,-0.89518 1.81361,-1.76154 2.82877,-2.52434 0.76069,-0.64486 1.61796,-1.2689 2.09366,-2.14802 0.18498,-0.90672 -0.99559,-1.5324 -1.78516,-1.20092 -1.42871,0.38288 -2.00156,1.87355 -3.13158,2.66838 -1.30396,1.10043 -4.72156,3.1028 -6.1807,3.93375 -1.46954,0.73914 -2.67489,1.85285 -4.03305,2.75355 -0.45914,0.4078 -1.20592,0.7295 -1.21925,1.41407 0.0486,0.67771 0.63906,1.12837 1.08365,1.58724 z" id="path4783-0-4" style="fill:none;stroke:#000000;stroke-width:1px;stroke-linecap:butt;stroke-linejoin:miter;stroke-opacity:1"/>
        <path d="m 328.86002,488.25403 c -0.49942,0.17636 -0.23244,-0.38381 -0.74631,-0.38842 -1.46609,-0.9594 -1.73533,-2.92503 -3.2462,-3.84518 -1.16442,-0.80197 -2.47675,-1.41792 -3.46688,-2.44064 -0.81624,-0.76904 -1.67298,-1.50868 -2.67454,-2.04364 -1.54548,-0.97006 -3.01792,-2.06605 -4.63401,-2.92058 -1.19616,-0.0408 -0.72612,1.49592 -0.35069,2.11778 0.55763,1.30983 2.13996,1.09976 3.19942,2.09102 0.91605,0.48172 1.26245,1.32284 2.07582,2.0517 0.29409,0.62579 0.22838,1.3475 0.95131,1.7422 0.89492,0.83576 2.19072,1.10544 3.02151,2.01805 1.09221,1.05151 1.89041,2.44553 3.29978,3.14605 1.08458,0.42777 2.10759,-0.47176 2.48817,-1.39947 l 0.0827,-0.12887 0,0 z" id="path4785-1-6" style="fill:none;stroke:#000000;stroke-width:1px;stroke-linecap:butt;stroke-linejoin:miter;stroke-opacity:1"/>
      </g>
      <g id="g5518">
        <path d="m 556.73888,468.78112 c 1.27458,-0.39863 2.03958,-1.55509 3.05517,-2.32925 1.49799,-1.35439 3.48998,-2.21445 4.58711,-3.96069 0.70446,-1.04889 1.44412,-2.07526 2.29506,-3.01777 0.62365,-0.77817 1.34608,-1.55434 1.64527,-2.50808 0.009,-0.92536 -1.26972,-1.31425 -1.98152,-0.83818 -1.32939,0.64848 -1.60725,2.22108 -2.56482,3.21694 -1.07,1.32905 -2.76869,1.89829 -4.04244,2.99242 -1.30148,1.00599 -2.27215,2.32925 -3.43347,3.47258 -0.37288,0.48792 -1.04454,0.94622 -0.92699,1.62075 0.17704,0.65599 0.84265,0.98569 1.36663,1.35128 z" id="path4783-0-9" style="fill:none;stroke:#000000;stroke-width:1px;stroke-linecap:butt;stroke-linejoin:miter;stroke-opacity:1"/>
        <path d="m 565.64066,490.74266 c -0.52353,0.0803 -0.15692,-0.42038 -0.66094,-0.52058 -1.26182,-1.2156 -1.16037,-3.19699 -2.47349,-4.38237 -3.15349,-3.10557 -2.12559,-3.73371 -5.45826,-6.42454 -1.16765,-0.26281 -1.43839,1.15599 -1.18531,1.83688 0.56113,4.18528 0.57678,1.55707 1.71836,4.26278 0.72366,0.98778 1.94659,1.49401 2.59293,2.54535 0.87733,1.23648 1.40201,2.75475 2.6563,3.70543 0.98597,0.62223 2.15858,-0.0711 2.70524,-0.91172 l 0.10524,-0.11121 0,0 z" id="path4785-1-2" style="fill:none;stroke:#000000;stroke-width:1px;stroke-linecap:butt;stroke-linejoin:miter;stroke-opacity:1"/>
        <path d="m 581.82863,473.87085 c -1.16835,-0.3991 -1.61728,-1.90917 -2.31019,-2.8183 -2.06016,-2.05228 -2.25395,-3.7078 -4.40192,-6.23465 -1.02513,-1.28241 -3.84794,-6.23874 -5.1907,-7.20658 -0.81809,-0.39917 -1.73685,0.35818 -1.99778,1.07394 -0.41627,0.83312 2.61289,4.43593 3.29529,5.20044 0.79879,1.0798 2.00423,1.70057 2.75067,2.81432 1.58053,2.03473 2.599,4.32705 4.36736,6.18603 0.73744,0.72378 1.12425,1.98856 2.02781,2.51763 0.40054,0.70436 0.98905,-1.10237 1.45946,-1.53283 z" id="path4779-5-3" style="fill:none;stroke:#000000;stroke-width:1px;stroke-linecap:butt;stroke-linejoin:miter;stroke-opacity:1"/>
        <path d="m 593.99092,487.41993 c -1.20811,-0.25456 -1.83673,-1.69909 -2.63472,-2.51755 -2.29369,-1.78748 -3.21846,-3.34238 -5.65683,-5.59029 -1.17299,-1.14872 -1.4603,-3.04852 -2.91046,-3.8465 -0.86043,-0.29708 -1.592,0.55521 -1.76427,1.29732 -0.31223,0.87743 0.88765,1.54811 1.65769,2.22429 0.92376,0.97503 1.23513,1.31652 2.11105,2.3316 1.81547,1.82818 3.63602,3.91525 5.61663,5.54622 0.81972,0.62907 1.35696,1.83765 2.31798,2.25332 0.48295,0.65063 0.84817,-1.21411 1.26293,-1.69841 z" id="path4779-5-7" style="fill:none;stroke:#000000;stroke-width:1px;stroke-linecap:butt;stroke-linejoin:miter;stroke-opacity:1"/>
        <path d="m 565.93005,489.29987 c 1.30924,-0.26336 2.19081,-1.33361 3.28169,-1.99749 1.63123,-1.19056 5.18307,-3.7422 6.45655,-5.36433 0.81013,-0.96959 1.65293,-1.91312 2.59764,-2.76162 0.7015,-0.70879 1.50102,-1.40528 1.89817,-2.32257 0.10513,-0.9194 -1.12554,-1.43965 -1.88317,-1.04051 -1.38983,0.50612 -1.83038,2.0411 -2.88671,2.93153 -1.20293,1.21005 -4.43271,3.50309 -5.81375,4.45823 -1.39942,0.86459 -2.50296,2.07926 -3.77731,3.09507 -0.4218,0.44632 -1.13765,0.83197 -1.09117,1.51509 0.10757,0.67088 0.73511,1.06828 1.21806,1.4866 z" id="path4783-0-4-7" style="fill:none;stroke:#000000;stroke-width:1px;stroke-linecap:butt;stroke-linejoin:miter;stroke-opacity:1"/>
        <path d="m 581.72937,473.70734 c 1.21864,-0.12151 2.11077,-0.93334 3.16178,-1.39794 1.58746,-0.85647 5.04075,-2.68811 6.33558,-3.92303 0.81872,-0.73465 1.66523,-1.44564 2.59733,-2.07164 0.69845,-0.52922 1.48558,-1.04135 1.92236,-1.76281 0.16984,-0.74412 -0.91413,-1.2576 -1.6391,-0.98556 -1.31182,0.31422 -1.8378,1.53756 -2.87536,2.18985 -1.19728,0.90309 -4.33526,2.54637 -5.67501,3.2283 -1.34931,0.60659 -2.45604,1.52058 -3.70308,2.25975 -0.42157,0.33467 -1.10725,0.59868 -1.11949,1.16049 0.0446,0.55617 0.58677,0.92601 0.99499,1.30259 z" id="path4783-0-4-8" style="fill:none;stroke:#000000;stroke-width:0.99999994px;stroke-linecap:butt;stroke-linejoin:miter;stroke-opacity:1"/>
        <path d="m 597.07926,485.92927 c -0.53323,-2.29079 -1.17604,-4.17375 -0.8581,-6.49984 -0.19355,-1.91306 -0.0432,-5.08479 0.0728,-6.99143 0.11855,-2.3955 1.22646,-4.00477 0.56948,-6.29746 -0.22077,-1.13266 -2.10413,-1.74656 -2.73877,-0.62177 -0.57007,1.06393 -0.16708,2.29945 -0.43677,3.42717 -0.22888,2.93771 -0.003,5.88436 -0.0328,8.82554 0.10994,1.78515 0.25532,3.56895 0.24071,5.3583 0.0853,1.24295 0.28447,2.48281 0.27084,3.72825 0.20654,1.13138 1.98678,1.08854 2.17218,-0.0299 0.1555,-0.3552 0.35401,-0.73911 0.74042,-0.89889 z" id="path4781-5-6-1" style="fill:none;stroke:#000000;stroke-width:1px;stroke-linecap:butt;stroke-linejoin:miter;stroke-opacity:1"/>
      </g>
      <g id="g5457">
        <path d="m 280.20869,461.09814 c -0.32183,-0.95393 -0.72921,-2.33789 -1.37549,-3.13539 -1.9097,-1.811 -2.80743,-3.05714 -4.80557,-5.27851 -1.11416,-0.6855 -1.90089,-1.51224 -2.84871,-3.17736 -0.75078,-0.36123 -1.49082,0.27273 -1.71492,0.88319 -0.36316,0.70812 -0.51128,1.65338 0.12279,2.32616 0.74562,0.94667 2.16728,1.05364 2.86595,2.02842 1.47349,1.78552 2.92772,3.79221 4.5687,5.43051 0.68338,0.63892 1.05795,1.73593 1.88878,2.21086 0.37684,0.61491 0.87881,-0.92752 1.29847,-1.28788 z" id="path4779-5-2-3" style="fill:none;stroke:#000000;stroke-width:1px;stroke-linecap:butt;stroke-linejoin:miter;stroke-opacity:1"/>
        <path d="m 278.40252,479.25558 c -1.13078,-5.67065 -4.51598,-11.86168 -5.39481,-12.3921 -2.14361,-1.67928 -11.44709,-9.24263 -14.08119,-10.65281 -1.34394,-1.0237 -9.51137,-4.76536 -11.91564,-4.80975 -0.82885,-0.0846 -1.30943,0.7631 -1.31275,1.4134 3.05582,0.53684 8.68416,3.00038 9.50912,3.41765 1.02295,0.63697 7.93207,5.52232 8.92042,6.20167 1.99255,1.17856 6.81,5.25022 8.6422,7.57269 0.85983,0.36867 3.37061,5.91597 3.86695,10.4553 0.56338,0.45027 1.49347,-0.72452 1.7657,-1.20605 z" id="path4779-5-2-9" style="fill:none;stroke:#000000;stroke-width:1px;stroke-linecap:butt;stroke-linejoin:miter;stroke-opacity:1"/>
        <path d="m 246.5942,454.79201 c -0.18368,5.77937 1.98425,9.05287 2.72001,9.76865 0.97279,2.69265 8.67042,11.94481 12.28294,12.85236 1.18719,0.54942 11.56807,6.9016 13.33051,6.12198 0.78812,0.27023 1.4483,-0.44651 1.5989,-1.07914 0.27716,-0.74598 -8.2717,-4.25239 -8.98064,-4.84575 -0.71573,0.37415 -9.67716,-4.93063 -10.58654,-6.72252 -1.67364,-1.59944 -5.44307,-6.65687 -6.7013,-9.33412 -0.75392,-0.55393 -1.86252,-4.13153 -2.02115,-8.00398 -0.44669,-0.56623 -1.26846,0.8352 -1.64273,1.24252 z" id="path4779-5-2-9-8" style="fill:none;stroke:#000000;stroke-width:1px;stroke-linecap:butt;stroke-linejoin:miter;stroke-opacity:1"/>
        <path d="m 252.22509,478.63418 c -0.19189,-0.55168 -0.18226,-1.73086 -0.56761,-2.19208 -1.13867,-1.04734 -1.67395,-1.76801 -2.86537,-3.05267 -0.66432,-0.39645 -1.38596,-0.49576 -1.9511,-1.45873 -0.44766,-0.20891 -0.88892,0.15772 -1.02254,0.51077 -0.21654,0.40952 -0.30486,0.95619 0.0732,1.34527 0.44458,0.54748 1.03972,1.36695 1.45631,1.93068 0.87858,1.03261 1.99822,1.43552 2.97667,2.38298 0.40747,0.3695 0.63082,1.00393 1.12621,1.27859 0.22469,0.35562 0.524,-0.53641 0.77423,-0.74481 z" id="path4779-5-2-3-5" style="fill:none;stroke:#000000;stroke-width:0.99999994px;stroke-linecap:butt;stroke-linejoin:miter;stroke-opacity:1"/>
        <path d="m 264.17969,463.18971 c -0.66443,0.17737 -1.62578,0.39455 -2.19785,0.79618 -1.31852,1.20901 -2.20747,1.76127 -3.80962,3.01298 -0.51631,0.72048 -1.11449,1.21528 -2.29126,1.7841 -0.27925,0.4896 0.12033,1.01258 0.52667,1.188 0.46675,0.2728 1.10463,0.41083 1.59113,0.0123 0.67812,-0.46228 0.81354,-1.41291 1.50876,-1.84252 1.28199,-0.91702 2.71388,-1.81211 3.90284,-2.84765 0.46559,-0.43301 1.2299,-0.63993 1.59018,-1.17868 0.43576,-0.22807 -0.59366,-0.62815 -0.82085,-0.92473 z" id="path4779-5-2-3-5-6" style="fill:none;stroke:#000000;stroke-width:0.99999988px;stroke-linecap:butt;stroke-linejoin:miter;stroke-opacity:1"/>
        <path d="m 262.64185,474.49259 c 0.65789,-0.20028 1.61114,-0.45062 2.16896,-0.87182 1.27586,-1.25395 2.14515,-1.83667 3.70298,-3.14311 0.49105,-0.73793 1.07174,-1.25315 2.2281,-1.86239 0.26213,-0.49898 -0.15533,-1.0078 -0.5675,-1.16905 -0.47592,-0.25647 -1.11819,-0.37232 -1.5906,0.0428 -0.6617,0.48549 -0.76412,1.44024 -1.44404,1.89367 -1.24946,0.96087 -2.64949,1.90501 -3.80188,2.9811 -0.45031,0.44888 -1.207,0.68215 -1.5484,1.23305 -0.4276,0.24303 0.61506,0.60721 0.85238,0.89575 z" id="path4779-5-2-3-5-6-0" style="fill:none;stroke:#000000;stroke-width:0.99999988px;stroke-linecap:butt;stroke-linejoin:miter;stroke-opacity:1"/>
        <path d="m 274.68783,473.75175 c -0.68352,0.18862 -1.67251,0.41957 -2.26102,0.84665 -2.14157,1.33544 -1.08969,1.59932 -3.4191,2.77974 -0.28727,0.52064 0.12377,1.07678 0.54181,1.26331 0.48016,0.29009 1.13638,0.43687 1.63687,0.0135 0.99341,-1.93733 1.77945,-1.84051 2.71,-2.66606 0.47898,-0.46046 1.26526,-0.68049 1.63589,-1.2534 0.44828,-0.24252 -0.61073,-0.66797 -0.84445,-0.98334 z" id="path4779-5-2-3-5-6-7" style="fill:none;stroke:#000000;stroke-width:0.99999994px;stroke-linecap:butt;stroke-linejoin:miter;stroke-opacity:1"/>
        <path d="m 252.52508,463.70899 c 0.67467,-0.21818 1.65267,-0.49194 2.22205,-0.94422 2.08144,-1.42735 1.01907,-1.64521 3.29492,-2.92586 0.26435,-0.53264 -0.1705,-1.07038 -0.59626,-1.23854 -0.49233,-0.26893 -1.15431,-0.38702 -1.63591,0.0577 -0.90818,1.97871 -1.69769,1.91618 -2.59144,2.78144 -0.45849,0.48086 -1.23445,0.73489 -1.57981,1.32338 -0.4373,0.2618 0.63922,0.64077 0.88644,0.94567 z" id="path4779-5-2-3-5-6-7-6" style="fill:none;stroke:#000000;stroke-width:0.99999994px;stroke-linecap:butt;stroke-linejoin:miter;stroke-opacity:1"/>
        <path d="m 277.18213,461.37932 c -0.62911,0.17558 -1.41311,1.02192 -1.95477,1.41948 -1.97109,1.24314 -1.12922,1.23625 -3.2732,2.33508 -0.2644,0.48466 0.14549,1.0655 0.53025,1.23914 0.44194,0.27004 0.82495,0.12256 1.2856,-0.27151 0.81963,-0.82484 1.95347,-1.23979 2.80995,-2.00828 0.44085,-0.42864 1.16454,-0.63346 1.50567,-1.16677 0.41259,-0.22576 0.10079,-0.74807 -0.11432,-1.04165 z" id="path4779-5-2-3-5-6-7-7" style="fill:none;stroke:#000000;stroke-width:1px;stroke-linecap:butt;stroke-linejoin:miter;stroke-opacity:1"/>
        <path d="m 272.41104,456.56424 c -0.68352,0.18862 -1.67251,0.41957 -2.26102,0.84665 -2.14157,1.33544 -1.08969,1.59932 -3.4191,2.77974 -0.28727,0.52064 0.12377,1.07678 0.54181,1.26331 0.48016,0.29009 1.13638,0.43687 1.63687,0.0135 0.99341,-1.93733 1.77945,-1.84051 2.71,-2.66606 0.47898,-0.46046 1.26526,-0.68049 1.63589,-1.2534 0.44828,-0.24252 -0.61073,-0.66797 -0.84445,-0.98334 z" id="path4779-5-2-3-5-6-7-2" style="fill:none;stroke:#000000;stroke-width:0.99999994px;stroke-linecap:butt;stroke-linejoin:miter;stroke-opacity:1"/>
        <path d="m 267.93343,452.59781 c -0.79039,0.0824 -1.92596,0.15465 -2.65735,0.52258 -2.61948,1.09352 -1.50961,1.58835 -4.30655,2.47246 -0.417,0.52982 -0.0704,1.23142 0.35505,1.51969 0.47404,0.41619 1.16986,0.70487 1.80342,0.3245 1.46833,-1.98575 2.31699,-1.72858 3.50233,-2.47892 0.61696,-0.42607 1.52677,-0.52433 2.04578,-1.09705 0.54121,-0.18736 -0.54548,-0.8648 -0.74276,-1.26278 z" id="path4779-5-2-3-5-6-7-69" style="fill:none;stroke:#000000;stroke-width:0.99999994px;stroke-linecap:butt;stroke-linejoin:miter;stroke-opacity:1"/>
        <path d="m 259.86728,491.82174 c -0.19355,-1.91306 -0.0432,-5.08479 0.0728,-6.99143 0.11855,-2.3955 1.22646,-4.00477 0.56948,-6.29746 -0.22077,-1.13266 -2.10413,-1.74656 -2.73877,-0.62177 -0.57007,1.06393 -0.16708,2.29945 -0.43677,3.42717 -0.22888,2.93771 -0.003,5.88436 -0.0328,8.82554 0.10994,1.78515 0.25532,3.56895 0.24071,5.3583 0.0853,1.24295 0.28447,2.48281 0.27084,3.72825 0.20654,1.13138 1.98678,1.08854 2.17218,-0.0299 1.44981,-2.13654 -0.37657,-5.28242 -0.11767,-7.3987 z" id="path4781-5-6-3" style="fill:none;stroke:#000000;stroke-width:1px;stroke-linecap:butt;stroke-linejoin:miter;stroke-opacity:1"/>
        <path d="m 247.73613,465.35365 c -2.68045,2.30228 -3.13411,3.83953 -4.4094,6.15314 -0.61028,0.94086 -0.87188,2.18416 -1.21866,3.26539 -0.67733,1.69432 -1.49166,3.33936 -2.04268,5.08244 0.17426,1.18411 1.60184,0.44624 2.14634,-0.0346 1.18867,-0.78337 0.69839,-2.30242 1.4837,-3.5224 0.30972,-0.98755 0.71799,-2.05947 1.28926,-2.99031 0.89272,-1.60011 1.73951,-2.80187 2.8087,-4.26996 0.83871,-1.263 1.71892,-0.72024 2.15548,-2.23234 -0.50948,-1.57087 -1.4934,-1.7793 -2.21274,-1.45136 z" id="path4785-1-6-7" style="fill:none;stroke:#000000;stroke-width:1px;stroke-linecap:butt;stroke-linejoin:miter;stroke-opacity:1"/>
        <path d="m 245.7721,481.52645 c 1.71073,0.0923 3.94399,0.30569 5.37716,-0.13934 0.95575,-0.033 1.72844,-0.52471 2.50774,-0.85423 1.34171,-0.40622 2.78542,-0.67172 4.03451,-1.20957 0.35483,-0.81664 -0.35594,-1.12499 -1.05374,-1.2995 -1.40827,-0.53238 -1.802,0.55609 -3.03592,0.60378 -0.70546,0.30674 -2.07179,0.66967 -2.98814,0.72902 -1.49484,0.17547 -2.95479,-0.19493 -4.5514,-0.23969 -1.30058,0.0282 -2.03677,0.067 -3.08306,0.56762 -0.22025,1.31231 -0.85339,1.25807 -0.0643,1.66334 z" id="path4785-1-6-7-7" style="fill:none;stroke:#000000;stroke-width:1px;stroke-linecap:butt;stroke-linejoin:miter;stroke-opacity:1"/>
      </g>
      <g id="g5483">
        <path d="m 371.1325,451.79479 c 0.36164,0.87429 4.61216,4.46858 5.44333,6.12375 1.98787,2.86428 5.43256,4.91811 6.56816,7.67523 1.42455,1.42018 2.32469,3.99912 3.75429,5.41001 0.78972,0.74745 2.32086,-0.76105 2.03853,-1.65282 -0.12458,-1.15649 -1.15349,-1.65532 -1.45755,-2.77132 -0.33309,-0.98695 -1.65848,-2.89463 -2.41711,-3.63293 -1.03401,-1.31996 -1.44079,-2.17625 -3.01847,-4.08353 -1.08075,-0.92503 -2.54284,-2.29708 -3.12862,-3.62308 -0.76161,-1.3451 -3.66349,-4.22727 -5.15366,-4.90712 -1.09906,-0.27579 -2.09778,0.5866 -2.6289,1.46181 z" id="path4785-9-2-5" style="fill:none;stroke:#000000;stroke-width:1px;stroke-linecap:butt;stroke-linejoin:miter;stroke-opacity:1"/>
        <path d="m 364.55257,499.50755 c -0.27878,-0.96019 -5.16172,-4.70017 -5.84501,-6.53536 -1.76566,-3.24109 -4.37128,-6.34064 -5.24527,-9.36808 -1.34129,-1.65915 -1.98679,-4.47168 -3.33455,-6.12167 -0.74835,-0.87797 -2.55465,0.52279 -2.36215,1.4919 -0.006,1.2281 1.02536,1.87364 1.21398,3.08058 0.23494,1.07499 1.41241,3.23381 2.12887,4.09848 0.93884,1.5076 0.73197,2.81141 2.17725,4.99977 1.0359,1.09883 2.69067,2.97979 3.15307,4.4405 0.64671,1.50164 3.64814,4.24504 5.14803,5.13527 1.13333,0.41988 2.29692,-0.36626 2.96578,-1.22139 z" id="path4785-9-2-5-1" style="fill:none;stroke:#000000;stroke-width:1px;stroke-linecap:butt;stroke-linejoin:miter;stroke-opacity:1"/>
        <path d="m 368.73425,449.48202 c -1.54525,1.39393 -3.41781,2.57453 -5.04572,3.45788 -1.60923,0.9729 -3.07237,3.05695 -4.54794,4.19291 -1.24614,1.00784 -2.87817,3.3205 -3.89101,4.58578 -1.37418,1.46897 -6.40569,10.05676 -7.324,12.51262 -0.72197,0.81308 0.83444,2.29551 1.71679,1.98496 1.15195,-0.16127 1.75076,-4.52505 2.65759,-5.60628 1.49358,-1.76527 3.47258,-7.41595 4.18639,-8.19766 1.75313,-2.29045 2.61722,-2.40666 4.47339,-4.04417 0.8902,-1.10961 2.00711,-1.93504 3.31382,-2.56268 1.3202,-0.80398 4.30892,-2.62967 6.00533,-3.74225 0.24072,-1.10728 -0.65297,-2.07808 -1.54464,-2.58111 z" id="path4785-9-4-1" style="fill:none;stroke:#000000;stroke-width:1px;stroke-linecap:butt;stroke-linejoin:miter;stroke-opacity:1"/>
        <path d="m 367.32403,502.55955 c 1.80621,-1.52517 3.95684,-2.77146 5.81576,-3.68565 1.84507,-1.0217 3.16623,-3.63815 4.87635,-4.86362 1.44787,-1.09234 2.79357,-3.78715 4.00385,-5.20299 1.62345,-1.62778 5.93351,-11.56468 7.12903,-14.39727 0.85603,-0.9041 -0.74663,-2.78415 -1.74158,-2.48776 -1.28061,0.098 -1.64246,5.92873 -2.72218,7.13528 -1.77719,1.96884 -4.20188,7.06856 -5.04657,7.93618 -2.1024,2.56949 -1.36622,3.61949 -3.53309,5.40786 -1.06355,1.24149 -1.90899,2.39621 -3.39502,3.03368 -1.51412,0.84508 -4.94226,2.76484 -6.89382,3.94483 -0.34816,1.29112 0.56311,2.51219 1.50727,3.17946 z" id="path4785-9-4-1-3" style="fill:none;stroke:#000000;stroke-width:1px;stroke-linecap:butt;stroke-linejoin:miter;stroke-opacity:1"/>
      </g>
    </g>
  </g>
</svg>